#!OML:ASF H:\Terrain\Patient Classification 1\Walking\liu\liu.ASF
:FULLY-SPECIFIED
:DEGREES
243
root 18.393700 32.451199 -5.039140 20.360399 -9.217520 -7.550640
lowerback -14.879640 4.094100 1.762900
upperback -5.033620 5.227320 4.394540
thorax 3.008980 2.618680 3.984860
lowerneck -36.476002 -11.958280 -28.127001
upperneck 32.621601 -15.268520 31.017401
head 18.644621 -5.845700 13.435940
rclavicle 0.000000 -0.000000
rhumerus -90.423798 15.299120 -173.927994
rradius 85.931396
rwrist -44.069801
rhand -57.919601 -46.296600
rfingers 14.250040
rthumb -4.625700 -106.231003
lclavicle 0.000000 -0.000000
lhumerus -94.116798 -9.429140 176.586395
lradius 39.146599
lwrist -12.301120
lhand -13.661600 -49.011799
lfingers 14.250040
lthumb 38.067001 9.165520
rfemur 33.620800 7.630420 47.671200
rtibia 31.899799
rfoot 10.759360 8.855880
rtoes -31.440201
lfemur -93.763000 18.319220 -42.453602
ltibia 85.406601
lfoot -11.231320 10.284300
ltoes -0.083807
244
root 18.476761 32.523399 -4.717720 20.262400 -9.934140 -6.684160
lowerback -14.841880 4.356340 1.394200
upperback -5.056560 5.613640 3.911180
thorax 2.960840 2.811040 3.723300
lowerneck -36.876202 -12.175000 -27.655600
upperneck 33.065601 -15.555680 30.334400
head 18.864441 -5.996140 13.067840
rclavicle 0.000000 -0.000000
rhumerus -91.037598 15.140220 -174.018799
rradius 85.077003
rwrist -44.691200
rhand -58.510799 -46.737400
rfingers 14.250040
rthumb -5.196760 -106.665199
lclavicle 0.000000 -0.000000
lhumerus -92.932800 -9.953900 176.410995
lradius 38.844601
lwrist -11.783660
lhand -12.097900 -45.138199
lfingers 14.250040
lthumb 39.570599 12.887880
rfemur 29.748199 6.197860 45.597401
rtibia 40.125198
rfoot 12.652480 9.366740
rtoes -28.583000
lfemur -92.046799 18.356079 -43.533600
ltibia 85.219200
lfoot -12.684900 10.300620
ltoes 1.765920
245
root 18.546520 32.598000 -4.415180 20.079201 -10.413340 -5.409420
lowerback -14.131440 4.245480 0.134829
upperback -5.449600 5.576720 3.697080
thorax 2.114040 2.802400 4.162200
lowerneck -37.168201 -12.096000 -27.701200
upperneck 33.773602 -15.363620 29.845600
head 19.106661 -5.942400 12.946200
rclavicle -0.000000 0.000000
rhumerus -92.703400 16.446341 -174.604202
rradius 85.150803
rwrist -46.701401
rhand -60.841000 -48.823002
rfingers 14.250040
rthumb -7.447000 -108.717400
lclavicle -0.000000 0.000000
lhumerus -92.345802 -9.726880 176.361801
lradius 38.480801
lwrist -12.265120
lhand -12.244820 -43.622398
lfingers 14.250040
lthumb 39.429401 14.418200
rfemur 26.308001 4.607360 43.278198
rtibia 47.631599
rfoot 14.054340 10.071520
rtoes -31.147600
lfemur -90.431396 18.292561 -45.202801
ltibia 85.008400
lfoot -13.614340 10.342660
ltoes 0.015700
246
root 18.622419 32.661201 -4.113800 19.877060 -11.004820 -4.255580
lowerback -13.511820 4.107660 -0.905334
upperback -5.814960 5.473840 3.521860
thorax 1.357604 2.764120 4.520160
lowerneck -37.312801 -11.914420 -27.739000
upperneck 34.542400 -15.055980 29.377399
head 19.326241 -5.839880 12.852100
rclavicle 0.000000 0.000000
rhumerus -93.362602 17.176519 -174.889206
rradius 83.528603
rwrist -47.578999
rhand -61.807598 -46.974602
rfingers 14.250040
rthumb -8.380580 -106.851601
lclavicle 0.000000 0.000000
lhumerus -91.911003 -9.160960 175.977600
lradius 38.592999
lwrist -13.592120
lhand -14.139420 -46.089600
lfingers 14.250040
lthumb 37.607601 12.132760
rfemur 23.223000 3.717220 41.208801
rtibia 54.764599
rfoot 15.895800 10.115340
rtoes -32.115799
lfemur -88.762398 18.543440 -46.800800
ltibia 84.642998
lfoot -14.626380 10.418540
ltoes -2.822580
